<svg xmlns="http://www.w3.org/2000/svg" width="350" height="388" viewBox="0 0 350.3 388"><style>.a{fill:#014CE4;}.b{fill:#AA54FF;}</style><path d="M343 243.4c0 6.1-5 11.1-11.1 11.1 -6.1 0-11.1-5-11.1-11.1 0-6.1 5-11.1 11.1-11.1C338.1 232.3 343 237.2 343 243.4" class="a"/><path d="M328.7 262.9L314 288.4c-1.4 2.5 0.4 5.6 3.2 5.6h29.4c2.9 0 4.7-3.1 3.2-5.6l-14.7-25.5C333.7 260.4 330.1 260.4 328.7 262.9" class="b"/><path d="M257.5 204.5c-0.8 24.8-37.4 44.8-82.4 44.8 -45 0-81.6-20-82.4-44.8 0 0.3 0 0.5 0 0.8v47.5l73.1 32.9c5.9 2.7 12.7 2.7 18.6 0l73.1-32.9v-47.5C257.6 205 257.5 204.7 257.5 204.5" class="a"/><path d="M345.2 197.3l-104.8-47.2c3.4-9.1 6.5-18.7 9.2-28.7 12.7-47.6 12.7-92.5 2.2-121.3 -23.4 19.9-45.7 58.8-58.4 106.4 -1.8 6.9-3.4 13.7-4.7 20.4l-4.2-1.9c-5.9-2.7-12.7-2.7-18.6 0l-4.2 1.9c-1.3-6.7-2.9-13.5-4.7-20.4C144.3 58.8 122 19.9 98.6 0c-10.4 28.9-10.4 73.7 2.2 121.3 2.7 10 5.8 19.6 9.2 28.7L5.2 197.3c-6.9 3.1-6.9 12.9 0 16l87.6 39.4c0 0 0-48 0-48.3 0.8-24.8 37.4-44.8 82.4-44.8 45 0 81.6 20 82.4 44.8 0 0.3 0 48.3 0 48.3l87.6-39.4C352.1 210.2 352.1 200.4 345.2 197.3" fill="#01E7E4"/><path d="M175.2 159.7c-45 0-81.6 20-82.4 44.8 0.8 24.8 37.4 44.8 82.4 44.8s81.6-20 82.4-44.8C256.7 179.6 220.2 159.7 175.2 159.7" fill="#001399"/><path d="M165.9 285.7l-73.1-32.9v89.6c0-25.2 36.9-45.6 82.4-45.6s82.4 20.4 82.4 45.6v-89.6l-73.1 32.9C178.6 288.3 171.8 288.3 165.9 285.7" class="b"/><path d="M257.6 342.4c0 25.2-36.9 45.6-82.4 45.6 -45.5 0-82.4-20.4-82.4-45.6s36.9-45.6 82.4-45.6C220.7 296.8 257.6 317.2 257.6 342.4" fill="#711CFF"/></svg>