<svg xmlns="http://www.w3.org/2000/svg" viewBox="0 0 896 633">
    <defs>
        <linearGradient id="linear-gradient" x1="447.98" y1="174.34" x2="447.98" y2="-310.79"
            gradientUnits="userSpaceOnUse">
            <stop offset="0" stop-color="#01e7e4" />
            <stop offset="1" stop-color="#aa54ff" />
        </linearGradient>
        <linearGradient id="linear-gradient-2" x1="448" y1="237.91" x2="448" y2="102.73" gradientUnits="userSpaceOnUse">
            <stop offset="0" stop-color="#fff" />
            <stop offset="1" stop-color="#01e7e4" />
        </linearGradient>
        <style>
            .fluorescent-blue {
                fill: #01e7e4
            }

            .zaffre {
                fill: #001399
            }

            .blue-ryb {
                fill: #014ce4
            }

            .electric-purple {
                fill: #aa54ff
            }

            .violet {
                fill: #711cff
            }

            .white {
                fill: #fff
            }

            .transparent {
                fill: none
            }
        </style>
    </defs>
    <g id="Layer_2" data-name="Layer 2">
        <g id="Layer_1-2" data-name="Layer 1">
            <path class="transparent" d="M0 0h896v633H0z" />
            <path fill="url(#linear-gradient)"
                d="M700.63 240.36c-19.08 83.4-68.57 86.21-91.28 148.92q-2 5.61-3.77 11.9c0 .16-.09.32-.13.49H290.56c0-.17-.08-.34-.13-.51-1.15-4.2-2.41-8.16-3.77-11.91-22.69-62.8-72.24-65.57-91.32-149C173 142.21 247.76 128.13 233.27 30a106.74 106.74 0 00-9.15-30h447.8a106.6 106.6 0 00-9.21 30.11c-14.5 98.15 60.29 112.23 37.92 210.25z" />
            <path class="fluorescent-blue"
                d="M40.76 418.34H20A15.64 15.64 0 004.36 434v24.4A15.63 15.63 0 0020 474h22.68v-14.86H21.26a4.26 4.26 0 01-4.26-4.26v-18.52a4.26 4.26 0 014.25-4.26h21.43v-13.76z" />
            <path class="fluorescent-blue"
                d="M26.39 410.66v65c0 10.41 17.14 18.84 38.28 18.84S103 486.07 103 475.66v-65z" />
            <ellipse class="fluorescent-blue" cx="64.67" cy="410.66" rx="38.28" ry="12.8" />
            <path class="zaffre"
                d="M40.81 273a20.48 20.48 0 012.56 10.7 32.46 32.46 0 01-2.76 10.95c-1.45 3.44-3.14 6.71-4.64 9.93a40.31 40.31 0 00-3.33 9.46 15.46 15.46 0 00.65 8.49 18.15 18.15 0 002 3.72 13.75 13.75 0 002.71 2.91c3.88 3.19 9.92 3.93 17.1 4.68a78.59 78.59 0 0111.8 2 36.39 36.39 0 016.63 2.5 29 29 0 016.47 4.42 29.65 29.65 0 015.13 6.2 32.79 32.79 0 013.32 7.19 29.79 29.79 0 011.38 8.28 34.58 34.58 0 01-.84 8.12 52.23 52.23 0 01-2.18 7c-.84 2.1-1.72 4-2.58 5.84-1.71 3.57-3.29 6.68-4.31 9.34a24.3 24.3 0 00-1.07 3.5 24 24 0 001.81 13.75l-27.97 3.52a37.4 37.4 0 01-2.19-9 34 34 0 01.31-9.42 38.67 38.67 0 012.46-8.14 55 55 0 013.34-6.39c2.32-3.74 4.6-6.75 6.5-9.43.94-1.32 1.79-2.56 2.52-3.71a33.56 33.56 0 001.73-3.14 10 10 0 001.09-5 12.11 12.11 0 00-.63-2.86 11.24 11.24 0 00-1.25-2.5 10.27 10.27 0 00-2-2.17 18.65 18.65 0 00-3.21-2 61.62 61.62 0 00-9.18-3.19 98.4 98.4 0 01-11.18-3.7 37.74 37.74 0 01-5.83-3.16 27 27 0 01-5.22-4.64 25.21 25.21 0 01-3.69-5.83 27.92 27.92 0 01-2-6.33 23.71 23.71 0 01-.27-6.67 26.23 26.23 0 011.45-6.22 47.07 47.07 0 015.67-10.2c2.11-3 4.28-5.88 6.17-8.84a29.46 29.46 0 004.23-9.44 19.45 19.45 0 00-.7-10.52z" />
            <ellipse class="zaffre" cx="64.67" cy="409.38" rx="29.99" ry="7.68" />
            <ellipse class="zaffre" cx="64.67" cy="413.22" rx="25.98" ry="3.84" />
            <path class="zaffre"
                d="M726.16 295.44c-11-15.73-25.67-24.57-41.48-24.89H683c-15.58.32-30.19 9-41.13 24.5s-17 36.22-17 58.16V460.4h4.48V353.21c0-21 5.76-40.76 16.22-55.58 6.73-9.52 14.9-16.24 23.77-19.76-3.94 4.2-7.52 10.12-10.57 17.63-6.3 15.5-9.77 35.95-9.77 57.71v105.2h4.48v-105.2c0-21.2 3.33-41.1 9.39-56 5.14-12.67 11.89-20.5 18.75-21.91v175.35h4.48v-175.4c15.43 3.09 28.14 37.75 28.14 78v105.2h4.48V353.21c0-33.77-8.24-62.42-20.31-75.33 23 9.2 40 39.64 40 75.33V460.4h4.48V353.21c.03-21.73-5.89-42.21-16.73-57.77z" />
            <path class="zaffre"
                d="M683.88 450.65c-47.08 0-85.25 11-85.25 24.59V489c0 13.58 38.17 24.59 85.25 24.59s85.25-11 85.25-24.59v-13.76c0-13.58-38.13-24.59-85.25-24.59z" />
            <ellipse class="blue-ryb" cx="683.88" cy="475.24" rx="85.25" ry="24.59" />
            <ellipse class="zaffre" cx="683.88" cy="471.62" rx="73.71" ry="16.09" />
            <path class="blue-ryb"
                d="M684.86 270.23h-2a83.08 83.08 0 00-82 83v117.09c0 16.73 42.76 25.76 83 25.76s83-9 83-25.76V353.21a83.09 83.09 0 00-82-82.98zm63.24 211.35a106.31 106.31 0 01-16.29 4.77V353.21c0-21.73-4.76-42.25-13.42-57.78a63.24 63.24 0 00-10.87-14.56c23.72 11.5 40.58 39.7 40.58 72.34zm-86.26 8.49a208.11 208.11 0 01-20.77-2.7V353.21c0-21 4.6-40.79 12.95-55.61 5.75-10.17 12.76-17.09 20.34-20.27q-3.81 6.38-6.74 18.41c-3.72 15.38-5.78 35.8-5.78 57.47zm-1.45-209.34a62.9 62.9 0 00-10.82 14.35c-8.78 15.58-13.57 36.23-13.57 58.13v133.14a106.65 106.65 0 01-16.29-4.77V353.21c0-20.88 6.74-40.5 19-55.24a64.72 64.72 0 0121.68-17.24zm66.3 72.48v134.16a208.11 208.11 0 01-20.77 2.7V353.21c0-30.87-4.28-62.25-12.54-75.9 19.02 7.92 33.31 39.09 33.31 75.9zM606 470.32V353.21a77.86 77.86 0 0134.09-64.36 79.687 79.687 0 00-5.41 5.85c-13 15.66-20.15 36.44-20.15 58.51v126.07c-5.53-2.86-8.53-5.97-8.53-8.96zm61 20.12V353.21c0-21.28 2-41.26 5.64-56.27 3.8-15.71 8.39-21.45 11.1-21.59h.3c7 .37 16.8 30.17 16.8 77.87v137.22c-5.39.34-11 .52-16.92.52s-11.57-.18-16.92-.52zm94.79-20.12c0 3-3 6.09-8.53 8.95V353.21c0-21.89-7.05-42.54-19.86-58.15a74.1 74.1 0 00-5.72-6.22 77.83 77.83 0 0134.11 64.37z" />
            <path class="blue-ryb"
                d="M683.88 276.24c-8 0-14.47-6.8-14.47-15.16s6.49-15.16 14.47-15.16 14.47 6.8 14.47 15.16-6.49 15.16-14.47 15.16zm0-24.17c-4.59 0-8.32 4-8.32 9s3.73 9 8.32 9 8.32-4 8.32-9-3.73-9-8.32-9zM263.71 372.16v115.11c0 10.55-29.66 19.1-66.25 19.1s-66.24-8.55-66.24-19.1V372.16c0-10.56 29.66-19.11 66.24-19.11s66.25 8.55 66.25 19.11z" />
            <path class="electric-purple"
                d="M263.71 359v25.26c0 10.56-29.66 19.12-66.25 19.12s-66.24-8.56-66.24-19.12V359c0-10.55 29.66-19.1 66.24-19.1s66.25 8.52 66.25 19.1z" />
            <path class="blue-ryb"
                d="M197.46 305.44c-54.94 0-99.47 12.85-99.47 28.7l2.19 16c0 15.85 43.56 28.7 97.28 28.7s97.28-12.85 97.28-28.7l2.2-16c0-15.85-44.54-28.7-99.48-28.7z" />
            <ellipse class="fluorescent-blue" cx="197.46" cy="334.06" rx="100.47" ry="28.98" />
            <ellipse class="blue-ryb" cx="197.46" cy="330.22" rx="68.14" ry="18.03" />
            <path class="zaffre"
                d="M253.8 340.37c-12.27 4.76-32.92 7.88-56.34 7.88s-44.06-3.12-56.33-7.88c12.27-4.76 32.92-7.88 56.33-7.88s44.07 3.12 56.34 7.88z" />
            <path class="fluorescent-blue"
                d="M100.43 238h7.91a6.58 6.58 0 016.58 6.58v50.53H93.85v-50.57a6.58 6.58 0 016.58-6.54z"
                transform="rotate(-29.67 104.411 266.542)" />
            <path class="electric-purple"
                d="M161.54 345.55c-16.32-2.69-28-7.15-31.3-12.37l-.25-.44-20.62-36.2 18.31-10.44 18.39 32.28z" />
            <path class="zaffre"
                d="M126.72 435c3.88 8.16 3.88 17.08.38 24.14-.75 1.43 1.55 1.76 2.83.41 6.13-6.7 8.76-15.24 7.51-23a2.61 2.61 0 00-2-1.9l-7.88-1.12c-.92-.15-1.27.55-.84 1.47z" />
            <path class="zaffre"
                d="M76.21 487.72c8.47 6 19.53 5 24.72-2.28a15.17 15.17 0 002.07-12.83 12.89 12.89 0 009-5.2c4.47-6.27 2.17-15.55-5.11-20.73a17.77 17.77 0 00-10.32-3.38l-.16-.13a24.78 24.78 0 0118.18.84 27.09 27.09 0 0113.87 15.14 27 27 0 0120.49 1.2c13.12 6.24 17.6 24.34 11.93 37.15-.09.21-.19.42-.29.63s-.19.41-.3.62c-11 22.37-36.68 28.92-59.29 18.17-13.46-6.4-22.84-17.5-26-30.22q.54.54 1.21 1.02z" />
            <path class="blue-ryb"
                d="M73.7 478a38.91 38.91 0 001.19 8.75q.64.54 1.32 1c8.47 6 19.53 5 24.72-2.28a15.17 15.17 0 002.07-12.86 12.89 12.89 0 009-5.2c4.47-6.27 2.17-15.55-5.11-20.73a17.77 17.77 0 00-10.32-3.38 15.72 15.72 0 012.43 2.57c4.54 6.06 4 14.13-1.17 18.13a11 11 0 01-8.59 1.92A12.46 12.46 0 0173.7 478z" />
            <path class="electric-purple" d="M620.08 411.91H275.93l32.14 110.71h279.86l32.15-110.71z" />
            <path fill="url(#linear-gradient-2)" d="M620.08 276.24H275.93l32.14-75.52h279.86l32.15 75.52z" />
            <path class="blue-ryb"
                d="M616.95 411.29h-337.9l31.56-66.6h274.78l31.56 66.6zM616.95 276.86h-337.9l31.56 66.6h274.78l31.56-66.6z" />
            <path class="violet"
                d="M587.93 344.07H308.07l-32.15 67.84h344.16zm-275.3 10.24h270.74l22.44 47.36H290.19z" />
            <path class="fluorescent-blue"
                d="M275.92 276.24l32.15 67.83h279.86l32.15-67.83zm307.45 57.59H312.63l-22.44-47.35h315.62z" />
            <path class="zaffre"
                d="M335.02 401.67h-44.83l22.44-47.36h.05l22.34 47.36zM605.81 401.67h-44.9l22.34-47.36h.12l22.44 47.36zM605.81 286.48l-22.44 47.35h-.28l-22.37-47.35h45.09zM335.04 286.48l-22.38 47.35h-.03l-22.44-47.35h44.85z" />
            <path class="electric-purple"
                d="M587.93 344.07H308.07l-21.41 45.18c1.36 3.75 2.62 7.71 3.77 11.91l22.2-46.85h270.74l22.21 46.87q1.73-6.3 3.77-11.9z" />
            <path class="zaffre"
                d="M520 276.24h36.48V307a5.69 5.69 0 01-5.69 5.69h-25.1A5.69 5.69 0 01520 307v-30.76zM339.53 276.24H376V307a5.69 5.69 0 01-5.69 5.69h-25.09a5.69 5.69 0 01-5.69-5.69v-30.76z" />
            <path class="blue-ryb"
                d="M556.47 276.24H520l-5.06-22.5a5.69 5.69 0 015.55-6.94h21.91a5.69 5.69 0 015.39 3.86zM381.07 253.74l-5.07 22.5h-36.47l8.68-25.58a5.69 5.69 0 015.39-3.86h21.92a5.69 5.69 0 015.55 6.94z" />
            <path class="zaffre"
                d="M549.31 448.38h-24.59a5.69 5.69 0 01-5.69-5.87l1-30.6h36.48L555 443a5.69 5.69 0 01-5.69 5.38zM371.28 448.38h-24.59A5.69 5.69 0 01341 443l-1.47-31H376l1 30.6a5.69 5.69 0 01-5.72 5.78zM598.79 491.26H297.21a3.54 3.54 0 01-3.4-2.52l-5-16.56a3.56 3.56 0 013.41-4.6h311.6a3.56 3.56 0 013.41 4.6l-5 16.56a3.54 3.54 0 01-3.44 2.52zM455 248c0-3.41-3.15-6.18-7-6.18s-7 2.77-7 6.18a6.18 6.18 0 004.15 5.63L441 265.91h14l-4.15-12.33A6.18 6.18 0 00455 248z" />
            <rect class="violet" x="533.67" y="420.27" width="8.15" height="19.75" rx="4.08" ry="4.08" />
            <rect class="violet" x="354.17" y="420.27" width="8.15" height="19.75" rx="4.08" ry="4.08" />
            <rect class="blue-ryb" x="534.57" y="284.6" width="8.15" height="19.75" rx="4.08" ry="4.08" />
            <rect class="blue-ryb" x="353.28" y="284.6" width="8.15" height="19.75" rx="4.08" ry="4.08" />
            <path class="white"
                d="M697.48 597.68l3.3-1.73-4.39-5.36a2.33 2.33 0 00-2.77-.52 1.42 1.42 0 00-.52 2.24zM712.21 590l3.3-1.73-4.39-5.37a2.32 2.32 0 00-2.77-.51 1.43 1.43 0 00-.52 2.24zM682.75 605.41l3.3-1.73-11.28-13.8a2.32 2.32 0 00-2.77-.51 1.42 1.42 0 00-.52 2.24zM727 582.23l3.29-1.73L719 566.71a2.33 2.33 0 00-2.78-.51 1.43 1.43 0 00-.52 2.24zM741.68 574.51l3.29-1.73-4.38-5.37a2.33 2.33 0 00-2.78-.51 1.43 1.43 0 00-.52 2.24zM756.41 566.78l3.29-1.72-4.38-5.37a2.33 2.33 0 00-2.78-.51 1.42 1.42 0 00-.52 2.24zM771.14 559.06l3.3-1.73-11.28-13.79a2.32 2.32 0 00-2.77-.51 1.43 1.43 0 00-.53 2.24zM785.87 551.34l3.3-1.73-4.39-5.37a2.32 2.32 0 00-2.77-.51 1.43 1.43 0 00-.53 2.24zM800.6 543.61l3.3-1.73-4.39-5.36a2.33 2.33 0 00-2.77-.52 1.42 1.42 0 00-.52 2.24zM815.33 535.89l3.3-1.73-11.28-13.8a2.33 2.33 0 00-2.77-.51 1.43 1.43 0 00-.52 2.24z" />
            <path class="white"
                d="M556.73 155.78l-5.12-2-1.38-5.31a3.16 3.16 0 00-6-.34l-2 5.12-5.3 1.38a3.16 3.16 0 00-.34 6l5.11 2 1.39 5.3a3.15 3.15 0 006 .34l2-5.11 5.31-1.38a3.16 3.16 0 00.33-6z" />
            <path class="white"
                d="M333.54 132.37l-4-.69-1.75-3.63a2.33 2.33 0 00-4.39.61l-.69 4-3.63 1.76a2.33 2.33 0 00.61 4.39l4 .68 1.76 3.64a2.33 2.33 0 004.39-.62l.68-4 3.64-1.75a2.33 2.33 0 00-.62-4.39z" />
        </g>
    </g>
</svg>