<svg xmlns="http://www.w3.org/2000/svg" xmlns:xlink="http://www.w3.org/1999/xlink" viewBox="0 0 896 633"><defs><style>.cls-1{fill:none;}.cls-2{fill:url(#linear-gradient);}.cls-3{fill:#01e7e4;}.cls-4{fill:#001399;}.cls-5{fill:#014ce4;}.cls-6{fill:#aa54ff;}.cls-7{fill:url(#linear-gradient-2);}.cls-8{fill:#711cff;}.cls-9{fill:#fff;}</style><linearGradient id="linear-gradient" x1="447.98" y1="174.34" x2="447.98" y2="-310.79" gradientUnits="userSpaceOnUse"><stop offset="0" stop-color="#01e7e4"/><stop offset="1" stop-color="#aa54ff"/></linearGradient><linearGradient id="linear-gradient-2" x1="448" y1="237.91" x2="448" y2="102.73" gradientUnits="userSpaceOnUse"><stop offset="0" stop-color="#fff"/><stop offset="1" stop-color="#01e7e4"/></linearGradient></defs><title>bannerCreativeSingle</title><g id="Layer_2" data-name="Layer 2"><g id="Layer_1-2" data-name="Layer 1"><rect class="cls-1" width="896" height="633"/><path class="cls-2" d="M700.63,240.36c-19.08,83.4-68.57,86.21-91.28,148.92q-2,5.61-3.77,11.9c0,.16-.09.32-.13.49H290.56c0-.17-.08-.34-.13-.51-1.15-4.2-2.41-8.16-3.77-11.91-22.69-62.8-72.24-65.57-91.32-149C173,142.21,247.76,128.13,233.27,30a106.74,106.74,0,0,0-9.15-30h447.8a106.6,106.6,0,0,0-9.21,30.11C648.21,128.26,723,142.34,700.63,240.36Z"/><path class="cls-3" d="M40.76,418.34H20A15.64,15.64,0,0,0,4.36,434v24.4A15.63,15.63,0,0,0,20,474H42.68V459.14H21.26A4.26,4.26,0,0,1,17,454.88V436.36a4.26,4.26,0,0,1,4.25-4.26H42.68V418.34Z"/><path class="cls-3" d="M26.39,410.66v65c0,10.41,17.14,18.84,38.28,18.84S103,486.07,103,475.66v-65Z"/><ellipse class="cls-3" cx="64.67" cy="410.66" rx="38.28" ry="12.8"/><path class="cls-4" d="M40.81,273a20.48,20.48,0,0,1,2.56,10.7,32.46,32.46,0,0,1-2.76,10.95c-1.45,3.44-3.14,6.71-4.64,9.93a40.31,40.31,0,0,0-3.33,9.46,15.46,15.46,0,0,0,.65,8.49,18.15,18.15,0,0,0,2,3.72A13.75,13.75,0,0,0,38,329.16c3.88,3.19,9.92,3.93,17.1,4.68a78.59,78.59,0,0,1,11.8,2,36.39,36.39,0,0,1,6.63,2.5A29,29,0,0,1,80,342.76a29.65,29.65,0,0,1,5.13,6.2,32.79,32.79,0,0,1,3.32,7.19,29.79,29.79,0,0,1,1.38,8.28,34.58,34.58,0,0,1-.84,8.12,52.23,52.23,0,0,1-2.18,7c-.84,2.1-1.72,4-2.58,5.84-1.71,3.57-3.29,6.68-4.31,9.34a24.3,24.3,0,0,0-1.07,3.5,24,24,0,0,0,1.81,13.75L52.69,415.5a37.4,37.4,0,0,1-2.19-9,34,34,0,0,1,.31-9.42,38.67,38.67,0,0,1,2.46-8.14,55,55,0,0,1,3.34-6.39c2.32-3.74,4.6-6.75,6.5-9.43.94-1.32,1.79-2.56,2.52-3.71a33.56,33.56,0,0,0,1.73-3.14,10,10,0,0,0,1.09-5,12.11,12.11,0,0,0-.63-2.86,11.24,11.24,0,0,0-1.25-2.5,10.27,10.27,0,0,0-2-2.17,18.65,18.65,0,0,0-3.21-2,61.62,61.62,0,0,0-9.18-3.19A98.4,98.4,0,0,1,41,344.85a37.74,37.74,0,0,1-5.83-3.16,27,27,0,0,1-5.22-4.64,25.21,25.21,0,0,1-3.69-5.83,27.92,27.92,0,0,1-2-6.33,23.71,23.71,0,0,1-.27-6.67A26.23,26.23,0,0,1,25.44,312a47.07,47.07,0,0,1,5.67-10.2c2.11-3,4.28-5.88,6.17-8.84a29.46,29.46,0,0,0,4.23-9.44A19.45,19.45,0,0,0,40.81,273Z"/><ellipse class="cls-4" cx="64.67" cy="409.38" rx="29.99" ry="7.68"/><ellipse class="cls-4" cx="64.67" cy="413.22" rx="25.98" ry="3.84"/><path class="cls-4" d="M726.16,295.44c-11-15.73-25.67-24.57-41.48-24.89H683c-15.58.32-30.19,9-41.13,24.5s-17,36.22-17,58.16V460.4h4.48V353.21c0-21,5.76-40.76,16.22-55.58,6.73-9.52,14.9-16.24,23.77-19.76-3.94,4.2-7.52,10.12-10.57,17.63C652.47,311,649,331.45,649,353.21v105.2h4.48V353.21c0-21.2,3.33-41.1,9.39-56,5.14-12.67,11.89-20.5,18.75-21.91V450.65h4.48V275.25c15.43,3.09,28.14,37.75,28.14,78v105.2h4.48V353.21c0-33.77-8.24-62.42-20.31-75.33,23,9.2,40,39.64,40,75.33V460.4h4.48V353.21C742.92,331.48,737,311,726.16,295.44Z"/><path class="cls-4" d="M683.88,450.65c-47.08,0-85.25,11-85.25,24.59V489c0,13.58,38.17,24.59,85.25,24.59s85.25-11,85.25-24.59V475.24C769.13,461.66,731,450.65,683.88,450.65Z"/><ellipse class="cls-5" cx="683.88" cy="475.24" rx="85.25" ry="24.59"/><ellipse class="cls-4" cx="683.88" cy="471.62" rx="73.71" ry="16.09"/><path class="cls-5" d="M684.86,270.23h-2a83.08,83.08,0,0,0-82,83V470.32c0,16.73,42.76,25.76,83,25.76s83-9,83-25.76V353.21A83.09,83.09,0,0,0,684.86,270.23ZM748.1,481.58a106.31,106.31,0,0,1-16.29,4.77V353.21c0-21.73-4.76-42.25-13.42-57.78a63.24,63.24,0,0,0-10.87-14.56c23.72,11.5,40.58,39.7,40.58,72.34Zm-86.26,8.49a208.11,208.11,0,0,1-20.77-2.7V353.21c0-21,4.6-40.79,12.95-55.61,5.75-10.17,12.76-17.09,20.34-20.27q-3.81,6.38-6.74,18.41c-3.72,15.38-5.78,35.8-5.78,57.47Zm-1.45-209.34a62.9,62.9,0,0,0-10.82,14.35C640.79,310.66,636,331.31,636,353.21V486.35a106.65,106.65,0,0,1-16.29-4.77V353.21c0-20.88,6.74-40.5,19-55.24A64.72,64.72,0,0,1,660.39,280.73Zm66.3,72.48V487.37a208.11,208.11,0,0,1-20.77,2.7V353.21c0-30.87-4.28-62.25-12.54-75.9C712.4,285.23,726.69,316.4,726.69,353.21ZM606,470.32V353.21a77.86,77.86,0,0,1,34.09-64.36c-1.87,1.83-3.68,3.78-5.41,5.85-13,15.66-20.15,36.44-20.15,58.51V479.28C609,476.42,606,473.31,606,470.32Zm61,20.12V353.21c0-21.28,2-41.26,5.64-56.27,3.8-15.71,8.39-21.45,11.1-21.59h.3c7,.37,16.8,30.17,16.8,77.87V490.44c-5.39.34-11,.52-16.92.52S672.35,490.78,667,490.44Zm94.79-20.12c0,3-3,6.09-8.53,8.95V353.21c0-21.89-7.05-42.54-19.86-58.15a74.1,74.1,0,0,0-5.72-6.22,77.83,77.83,0,0,1,34.11,64.37Z"/><path class="cls-5" d="M683.88,276.24c-8,0-14.47-6.8-14.47-15.16s6.49-15.16,14.47-15.16,14.47,6.8,14.47,15.16S691.86,276.24,683.88,276.24Zm0-24.17c-4.59,0-8.32,4-8.32,9s3.73,9,8.32,9,8.32-4,8.32-9S688.47,252.07,683.88,252.07Z"/><path class="cls-5" d="M263.71,372.16V487.27c0,10.55-29.66,19.1-66.25,19.1s-66.24-8.55-66.24-19.1V372.16c0-10.56,29.66-19.11,66.24-19.11S263.71,361.6,263.71,372.16Z"/><path class="cls-6" d="M263.71,359v25.26c0,10.56-29.66,19.12-66.25,19.12s-66.24-8.56-66.24-19.12V359c0-10.55,29.66-19.1,66.24-19.1S263.71,348.42,263.71,359Z"/><path class="cls-5" d="M197.46,305.44c-54.94,0-99.47,12.85-99.47,28.7l2.19,16c0,15.85,43.56,28.7,97.28,28.7s97.28-12.85,97.28-28.7l2.2-16C296.94,318.29,252.4,305.44,197.46,305.44Z"/><ellipse class="cls-3" cx="197.46" cy="334.06" rx="100.47" ry="28.98"/><ellipse class="cls-5" cx="197.46" cy="330.22" rx="68.14" ry="18.03"/><path class="cls-4" d="M253.8,340.37c-12.27,4.76-32.92,7.88-56.34,7.88s-44.06-3.12-56.33-7.88c12.27-4.76,32.92-7.88,56.33-7.88S241.53,335.61,253.8,340.37Z"/><path class="cls-3" d="M100.43,238h7.91a6.58,6.58,0,0,1,6.58,6.58v50.53a0,0,0,0,1,0,0H93.85a0,0,0,0,1,0,0V244.54A6.58,6.58,0,0,1,100.43,238Z" transform="translate(-118.25 86.63) rotate(-29.67)"/><path class="cls-6" d="M161.54,345.55c-16.32-2.69-28-7.15-31.3-12.37l-.25-.44-20.62-36.2,18.31-10.44,18.39,32.28Z"/><path class="cls-4" d="M126.72,435c3.88,8.16,3.88,17.08.38,24.14-.75,1.43,1.55,1.76,2.83.41,6.13-6.7,8.76-15.24,7.51-23a2.61,2.61,0,0,0-2-1.9l-7.88-1.12C126.64,433.38,126.29,434.08,126.72,435Z"/><path class="cls-4" d="M76.21,487.72c8.47,6,19.53,5,24.72-2.28A15.17,15.17,0,0,0,103,472.61a12.89,12.89,0,0,0,9-5.2c4.47-6.27,2.17-15.55-5.11-20.73a17.77,17.77,0,0,0-10.32-3.38l-.16-.13a24.78,24.78,0,0,1,18.18.84,27.09,27.09,0,0,1,13.87,15.14,27,27,0,0,1,20.49,1.2c13.12,6.24,17.6,24.34,11.93,37.15-.09.21-.19.42-.29.63s-.19.41-.3.62c-11,22.37-36.68,28.92-59.29,18.17-13.46-6.4-22.84-17.5-26-30.22Q75.54,487.24,76.21,487.72Z"/><path class="cls-5" d="M73.7,478a38.91,38.91,0,0,0,1.19,8.75q.64.54,1.32,1c8.47,6,19.53,5,24.72-2.28A15.17,15.17,0,0,0,103,472.61a12.89,12.89,0,0,0,9-5.2c4.47-6.27,2.17-15.55-5.11-20.73a17.77,17.77,0,0,0-10.32-3.38A15.72,15.72,0,0,1,99,445.87C103.54,451.93,103,460,97.83,464a11,11,0,0,1-8.59,1.92A12.46,12.46,0,0,1,73.7,478Z"/><polygon class="cls-6" points="620.08 411.91 275.93 411.91 308.07 522.62 587.93 522.62 620.08 411.91"/><polygon class="cls-7" points="620.08 276.24 275.93 276.24 308.07 200.72 587.93 200.72 620.08 276.24"/><polygon class="cls-5" points="616.95 411.29 279.05 411.29 310.61 344.69 585.39 344.69 616.95 411.29"/><polygon class="cls-5" points="616.95 276.86 279.05 276.86 310.61 343.46 585.39 343.46 616.95 276.86"/><path class="cls-8" d="M587.93,344.07H308.07l-32.15,67.84H620.08Zm-275.3,10.24H583.37l22.44,47.36H290.19Z"/><path class="cls-3" d="M275.92,276.24l32.15,67.83H587.93l32.15-67.83Zm307.45,57.59H312.63l-22.44-47.35H605.81Z"/><polygon class="cls-4" points="335.02 401.67 290.19 401.67 312.63 354.31 312.68 354.31 335.02 401.67"/><polygon class="cls-4" points="605.81 401.67 560.91 401.67 583.25 354.31 583.37 354.31 605.81 401.67"/><polygon class="cls-4" points="605.81 286.48 583.37 333.83 583.09 333.83 560.72 286.48 605.81 286.48"/><polygon class="cls-4" points="335.04 286.48 312.66 333.83 312.63 333.83 290.19 286.48 335.04 286.48"/><path class="cls-6" d="M587.93,344.07H308.07l-21.41,45.18c1.36,3.75,2.62,7.71,3.77,11.91l22.2-46.85H583.37l22.21,46.87q1.73-6.3,3.77-11.9Z"/><path class="cls-4" d="M520,276.24h36.48a0,0,0,0,1,0,0V307a5.69,5.69,0,0,1-5.69,5.69H525.69A5.69,5.69,0,0,1,520,307V276.24A0,0,0,0,1,520,276.24Z"/><path class="cls-4" d="M339.53,276.24H376a0,0,0,0,1,0,0V307a5.69,5.69,0,0,1-5.69,5.69H345.22a5.69,5.69,0,0,1-5.69-5.69V276.24a0,0,0,0,1,0,0Z"/><path class="cls-5" d="M556.47,276.24H520l-5.06-22.5a5.69,5.69,0,0,1,5.55-6.94H542.4a5.69,5.69,0,0,1,5.39,3.86Z"/><path class="cls-5" d="M381.07,253.74,376,276.24H339.53l8.68-25.58a5.69,5.69,0,0,1,5.39-3.86h21.92A5.69,5.69,0,0,1,381.07,253.74Z"/><path class="cls-4" d="M549.31,448.38H524.72a5.69,5.69,0,0,1-5.69-5.87l1-30.6h36.48L555,443A5.69,5.69,0,0,1,549.31,448.38Z"/><path class="cls-4" d="M371.28,448.38H346.69A5.69,5.69,0,0,1,341,443l-1.47-31H376l1,30.6A5.69,5.69,0,0,1,371.28,448.38Z"/><path class="cls-4" d="M598.79,491.26H297.21a3.54,3.54,0,0,1-3.4-2.52l-5-16.56a3.56,3.56,0,0,1,3.41-4.6H603.82a3.56,3.56,0,0,1,3.41,4.6l-5,16.56A3.54,3.54,0,0,1,598.79,491.26Z"/><path class="cls-4" d="M455,248c0-3.41-3.15-6.18-7-6.18s-7,2.77-7,6.18a6.18,6.18,0,0,0,4.15,5.63L441,265.91H455l-4.15-12.33A6.18,6.18,0,0,0,455,248Z"/><rect class="cls-8" x="533.67" y="420.27" width="8.15" height="19.75" rx="4.08" ry="4.08"/><rect class="cls-8" x="354.17" y="420.27" width="8.15" height="19.75" rx="4.08" ry="4.08"/><rect class="cls-5" x="534.57" y="284.6" width="8.15" height="19.75" rx="4.08" ry="4.08"/><rect class="cls-5" x="353.28" y="284.6" width="8.15" height="19.75" rx="4.08" ry="4.08"/><path class="cls-5" d="M515.36,566.57c-13.15,0-23.81,5.7-23.81,12.74V588c0,7,10.66,12.75,23.81,12.75s23.8-5.71,23.8-12.75v-8.68C539.16,572.27,528.5,566.57,515.36,566.57Z"/><ellipse class="cls-3" cx="515.36" cy="579.31" rx="23.81" ry="12.74"/><ellipse class="cls-5" cx="515.36" cy="579.31" rx="15.1" ry="8.09"/><path class="cls-4" d="M580.42,543.65c-13.15,0-23.8,5.7-23.8,12.74v8.68c0,7,10.65,12.74,23.8,12.74s23.81-5.7,23.81-12.74v-8.68C604.23,549.35,593.57,543.65,580.42,543.65Z"/><ellipse class="cls-8" cx="580.42" cy="556.39" rx="23.81" ry="12.74"/><ellipse class="cls-4" cx="580.42" cy="556.39" rx="15.1" ry="8.09"/><path class="cls-4" d="M616.53,549.48c-13.14,0-23.8,5.71-23.8,12.75v8.68c0,7,10.66,12.74,23.8,12.74s23.81-5.7,23.81-12.74v-8.68C640.34,555.19,629.68,549.48,616.53,549.48Z"/><ellipse class="cls-8" cx="616.53" cy="562.23" rx="23.81" ry="12.74"/><ellipse class="cls-4" cx="616.53" cy="562.23" rx="15.1" ry="8.09"/><path class="cls-8" d="M599.38,538.3c-13.15,0-23.81,5.7-23.81,12.74v8.68c0,7,10.66,12.75,23.81,12.75s23.8-5.71,23.8-12.75V551C623.18,544,612.53,538.3,599.38,538.3Z"/><ellipse class="cls-6" cx="599.38" cy="551.04" rx="23.81" ry="12.74"/><ellipse class="cls-8" cx="599.38" cy="551.04" rx="15.1" ry="8.09"/><path class="cls-3" d="M827.64,529.43l-153.9,80.7a3.38,3.38,0,0,1-4-.74l-19.56-23.94a2.07,2.07,0,0,1,.75-3.25l153.9-80.69a3.38,3.38,0,0,1,4,.74l19.57,23.94A2.06,2.06,0,0,1,827.64,529.43Z"/><path class="cls-9" d="M697.48,597.68l3.3-1.73-4.39-5.36a2.33,2.33,0,0,0-2.77-.52h0a1.42,1.42,0,0,0-.52,2.24Z"/><path class="cls-9" d="M712.21,590l3.3-1.73-4.39-5.37a2.32,2.32,0,0,0-2.77-.51h0a1.43,1.43,0,0,0-.52,2.24Z"/><path class="cls-9" d="M682.75,605.41l3.3-1.73-11.28-13.8a2.32,2.32,0,0,0-2.77-.51h0a1.42,1.42,0,0,0-.52,2.24Z"/><path class="cls-9" d="M727,582.23l3.29-1.73L719,566.71a2.33,2.33,0,0,0-2.78-.51h0a1.43,1.43,0,0,0-.52,2.24Z"/><path class="cls-9" d="M741.68,574.51l3.29-1.73-4.38-5.37a2.33,2.33,0,0,0-2.78-.51h0a1.43,1.43,0,0,0-.52,2.24Z"/><path class="cls-9" d="M756.41,566.78l3.29-1.72-4.38-5.37a2.33,2.33,0,0,0-2.78-.51h0a1.42,1.42,0,0,0-.52,2.24Z"/><path class="cls-9" d="M771.14,559.06l3.3-1.73-11.28-13.79a2.32,2.32,0,0,0-2.77-.51h0a1.43,1.43,0,0,0-.53,2.24Z"/><path class="cls-9" d="M785.87,551.34l3.3-1.73-4.39-5.37a2.32,2.32,0,0,0-2.77-.51h0a1.43,1.43,0,0,0-.53,2.24Z"/><path class="cls-9" d="M800.6,543.61l3.3-1.73-4.39-5.36a2.33,2.33,0,0,0-2.77-.52h0a1.42,1.42,0,0,0-.52,2.24Z"/><path class="cls-9" d="M815.33,535.89l3.3-1.73-11.28-13.8a2.33,2.33,0,0,0-2.77-.51h0a1.43,1.43,0,0,0-.52,2.24Z"/><polygon class="cls-6" points="144.88 574.05 139.06 576.26 124.07 575.62 115.88 575.27 121.76 569.56 132.53 559.11 138.35 556.89 144.88 574.05"/><path class="cls-4" d="M124.07,575.62l-8.19-.35,5.88-5.71a12.39,12.39,0,0,1,2.31,6.06Z"/><path class="cls-8" d="M244,531.38l-3.27-8.58-.2-.53a4,4,0,0,0-5.19-2.33L132.53,559.11a4.58,4.58,0,0,0,5.92,2.65h0a4.59,4.59,0,1,0,3.27,8.58,4.59,4.59,0,0,0-2.66,5.93L241.92,537.1a4,4,0,0,0,2.32-5.19Z"/><polygon class="cls-8" points="214.63 578.77 208.43 579.35 194.16 574.71 186.36 572.18 193.56 568.26 206.73 561.07 212.93 560.49 214.63 578.77"/><path class="cls-4" d="M194.16,574.71l-7.8-2.53,7.2-3.92a12.81,12.81,0,0,1,.73,3.18A12.68,12.68,0,0,1,194.16,574.71Z"/><path class="cls-3" d="M321.59,564.21l-.85-9.14-.05-.57a4,4,0,0,0-4.37-3.62L206.73,561.07a4.58,4.58,0,0,0,5,4.14h0a4.59,4.59,0,0,0,.85,9.14,4.6,4.6,0,0,0-4.14,5L318,569.15a4,4,0,0,0,3.63-4.37Z"/><path class="cls-3" d="M810.2,256.19,795.46,246l-.33-17.9a3.73,3.73,0,0,0-6.81-2.06l-10.17,14.74-17.9.33a3.74,3.74,0,0,0-2.06,6.81l14.74,10.17.33,17.9a3.74,3.74,0,0,0,6.82,2.06l10.16-14.74,17.9-.33A3.74,3.74,0,0,0,810.2,256.19Z"/><path class="cls-9" d="M556.73,155.78l-5.12-2-1.38-5.31a3.16,3.16,0,0,0-6-.34l-2,5.12-5.3,1.38a3.16,3.16,0,0,0-.34,6l5.11,2,1.39,5.3a3.15,3.15,0,0,0,6,.34l2-5.11,5.31-1.38A3.16,3.16,0,0,0,556.73,155.78Z"/><path class="cls-3" d="M732.31,81.59l-4.47-3.16,0-5.48a3.17,3.17,0,0,0-5.75-1.8l-3.16,4.48-5.48,0a3.16,3.16,0,0,0-1.8,5.74l4.48,3.16,0,5.48a3.16,3.16,0,0,0,5.74,1.8L725,87.37l5.48,0A3.16,3.16,0,0,0,732.31,81.59Z"/><path class="cls-3" d="M110.64,164.62l-5.43.72-3.75-4A3.16,3.16,0,0,0,96,163.91l.71,5.43-4,3.75a3.16,3.16,0,0,0,2.57,5.44l5.43-.71,3.75,4a3.16,3.16,0,0,0,5.44-2.57l-.71-5.44,4-3.74A3.17,3.17,0,0,0,110.64,164.62Z"/><path class="cls-9" d="M333.54,132.37l-4-.69-1.75-3.63a2.33,2.33,0,0,0-4.39.61l-.69,4-3.63,1.76a2.33,2.33,0,0,0,.61,4.39l4,.68,1.76,3.64a2.33,2.33,0,0,0,4.39-.62l.68-4,3.64-1.75A2.33,2.33,0,0,0,333.54,132.37Z"/></g></g></svg>