<svg xmlns="http://www.w3.org/2000/svg" viewBox="0 0 1920 897"><defs><linearGradient id="prefix__linear-gradient" x1="1319.99" y1="411.36" x2="1319.99" y2="-252.43" gradientUnits="userSpaceOnUse"><stop offset="0" stop-color="#01e7e4"/><stop offset="1" stop-color="#aa54ff"/></linearGradient><linearGradient id="prefix__linear-gradient-2" x1="1320" y1="461.29" x2="1320" y2="310.45" gradientUnits="userSpaceOnUse"><stop offset="0" stop-color="#fff"/><stop offset="1" stop-color="#01e7e4"/></linearGradient><style>.prefix__fluorescent-blue{fill:#01e7e4}.prefix__zaffre{fill:#001399}.prefix__blue-ryb{fill:#014ce4}.prefix__electric-purple{fill:#aa54ff}.prefix__violet{fill:#711cff}.prefix__white{fill:#fff}</style></defs><g id="prefix__Layer_2" data-name="Layer 2"><g id="prefix__Layer_1-2" data-name="Layer 1"><path fill="none" d="M0 0h1920v897H0z"/><path class="prefix__fluorescent-blue" d="M865.62 662.61h-23.23A17.43 17.43 0 00825 680.06v27.22a17.44 17.44 0 0017.39 17.45h25.36v-16.6h-23.9a4.75 4.75 0 01-4.74-4.75v-20.67a4.75 4.75 0 014.74-4.75h23.9v-15.35z"/><path class="prefix__fluorescent-blue" d="M849.58 654v72.52c0 11.61 19.12 21 42.71 21s42.71-9.41 42.71-21V654z"/><ellipse class="prefix__fluorescent-blue" cx="892.29" cy="654.04" rx="42.71" ry="14.28"/><path class="prefix__zaffre" d="M865.67 500.47a22.78 22.78 0 012.85 11.94 36.06 36.06 0 01-3.08 12.21c-1.61 3.85-3.5 7.5-5.17 11.08a45.16 45.16 0 00-3.72 10.56 17.38 17.38 0 00.73 9.48 20.9 20.9 0 002.2 4.15 15.6 15.6 0 003 3.21c4.33 3.56 11.07 4.39 19.09 5.22a87.9 87.9 0 0113.16 2.19 42.21 42.21 0 017.4 2.79 32.72 32.72 0 017.23 5 33.6 33.6 0 015.72 6.92 36.27 36.27 0 013.71 8 32.8 32.8 0 011.53 9.24 38.63 38.63 0 01-.93 9.06 56.14 56.14 0 01-2.44 7.76c-.93 2.35-1.91 4.5-2.87 6.52-1.91 4-3.67 7.46-4.81 10.42a23.31 23.31 0 00.83 19.26l-31.17 4a42 42 0 01-2.44-10 37.64 37.64 0 01.35-10.52 43 43 0 012.74-9.08 60.57 60.57 0 013.73-7.13c2.58-4.18 5.13-7.53 7.25-10.52 1.05-1.47 2-2.86 2.81-4.15a35.67 35.67 0 001.93-3.49 11.14 11.14 0 001.22-5.59 13.24 13.24 0 00-.71-3.2 11.92 11.92 0 00-1.39-2.79 11.35 11.35 0 00-2.28-2.41 20.68 20.68 0 00-3.57-2.18 70.89 70.89 0 00-10.25-3.57 106.64 106.64 0 01-12.47-4.17 41.76 41.76 0 01-6.51-3.52 30.06 30.06 0 01-5.82-5.18 27.87 27.87 0 01-4.13-6.5 31.07 31.07 0 01-2.22-7.07 26.2 26.2 0 01-.3-7.44 28.9 28.9 0 011.66-7 52.6 52.6 0 016.32-11.38c2.36-3.38 4.78-6.56 6.89-9.86a33.06 33.06 0 004.72-10.54 21.74 21.74 0 00-.79-11.72z"/><ellipse class="prefix__zaffre" cx="892.29" cy="652.61" rx="33.46" ry="8.57"/><ellipse class="prefix__zaffre" cx="892.29" cy="656.9" rx="28.98" ry="4.28"/><path d="M1693.17 0H946.81c-26.15 52.5 5.65 80.22 43.3 110.77 38.08 30.2 82 63.23 90.3 118.52 16.17 109.5-67.23 125.22-42.32 234.59 21.29 93.1 76.57 96.19 101.89 166.27 1.52 4.18 2.92 8.6 4.21 13.29l.15.56h351.34l.15-.54c1.28-4.69 2.69-9.1 4.2-13.28 25.34-70 80.56-73.11 101.85-166.16 24.91-109.37-58.48-125.09-42.31-234.59 8.3-55.28 52.22-88.31 90.3-118.52 37.63-30.54 69.44-58.41 43.3-110.91z" fill="url(#prefix__linear-gradient)"/><path class="prefix__zaffre" d="M1630.36 525.48c-12.23-17.56-28.64-27.42-46.28-27.78h-1.86c-17.39.36-33.68 10.06-45.89 27.34s-19 40.41-19 64.89v119.6h5v-119.6c0-23.45 6.43-45.48 18.1-62 7.51-10.62 16.63-18.12 26.52-22-4.39 4.68-8.39 11.29-11.79 19.67-7 17.24-10.85 40.11-10.85 64.39v117.32h5V589.93c0-23.65 3.72-45.85 10.48-62.51 5.74-14.14 13.26-22.87 20.92-24.45v195.68h5V503c17.22 3.45 31.4 42.12 31.4 87v117.31h5V589.93c0-37.68-9.2-69.64-22.66-84 25.66 10.27 44.64 44.23 44.64 84v119.6h5v-119.6c-.02-24.25-6.67-47.14-18.73-64.45z"/><path class="prefix__zaffre" d="M1583.19 698.65c-52.53 0-95.12 12.29-95.12 27.44v15.33c0 15.15 42.59 27.44 95.12 27.44s95.12-12.29 95.12-27.44v-15.33c0-15.15-42.59-27.44-95.12-27.44z"/><ellipse class="prefix__blue-ryb" cx="1583.19" cy="726.09" rx="95.12" ry="27.44"/><ellipse class="prefix__zaffre" cx="1583.19" cy="722.06" rx="82.25" ry="17.95"/><path class="prefix__blue-ryb" d="M1584.28 497.35H1582a92.7 92.7 0 00-91.44 92.58V720.6c0 18.67 47.71 28.74 92.6 28.74s92.6-10.07 92.6-28.74V589.93a92.7 92.7 0 00-91.48-92.58zm70.57 235.81a118.3 118.3 0 01-18.18 5.33V589.93c0-24.24-5.31-47.14-15-64.46a70.9 70.9 0 00-12.13-16.25c26.46 12.83 45.28 44.29 45.28 80.71zm-96.25 9.48a233.46 233.46 0 01-23.18-3V589.93c0-23.47 5.14-45.51 14.46-62 6.4-11.34 14.23-19.07 22.69-22.61q-4.26 7.11-7.52 20.54c-4.16 17.17-6.45 39.94-6.45 64.12zm-1.6-233.58a70.13 70.13 0 00-12.08 16c-9.79 17.38-15.19 40.41-15.19 64.85v148.58a117.81 117.81 0 01-18.17-5.33V589.93c0-23.3 7.51-45.18 21.16-61.63a72.18 72.18 0 0124.28-19.24zm74 80.87v149.7a233.07 233.07 0 01-23.18 3v-152.7c0-34.44-4.78-69.45-14-84.69 21.18 8.85 37.18 43.62 37.18 84.69zM1496.31 720.6V589.93a86.87 86.87 0 0138-71.81 85.8 85.8 0 00-6 6.53c-14.49 17.47-22.47 40.65-22.47 65.28v140.66c-6.16-3.19-9.53-6.65-9.53-9.99zm68 22.46V589.93c0-23.74 2.24-46 6.29-62.78 4.24-17.53 9.36-23.94 12.38-24.09h.34c7.83.41 18.75 33.66 18.75 86.88v153.11c-6 .38-12.32.58-18.88.58s-12.87-.2-18.88-.57zm105.77-22.46c0 3.34-3.38 6.8-9.52 10V589.93c0-24.42-7.87-47.47-22.16-64.88a84.92 84.92 0 00-6.38-6.94 86.87 86.87 0 0138.06 71.82z"/><path class="prefix__blue-ryb" d="M1583.19 504.05c-8.9 0-16.15-7.59-16.15-16.91s7.25-16.92 16.15-16.92 16.15 7.59 16.15 16.92-7.25 16.91-16.15 16.91zm0-27c-5.12 0-9.28 4.51-9.28 10.05s4.16 10.05 9.28 10.05 9.28-4.51 9.28-10.05-4.16-10.01-9.28-10.01zm-468.82 134.02v128.44c0 11.77-33.09 21.32-73.91 21.32s-73.91-9.55-73.91-21.32V611.07c0-11.77 33.08-21.32 73.91-21.32s73.91 9.55 73.91 21.32z"/><path class="prefix__electric-purple" d="M1114.37 596.36v28.19c0 11.78-33.09 21.33-73.91 21.33s-73.91-9.55-73.91-21.33v-28.19c0-11.77 33.08-21.32 73.91-21.32s73.91 9.55 73.91 21.32z"/><path class="prefix__blue-ryb" d="M1040.46 536.64c-61.3 0-111 14.33-111 32l2.46 17.88c0 17.69 48.59 32 108.54 32s108.54-14.33 108.54-32l2.45-17.88c0-17.64-49.69-32-110.99-32z"/><ellipse class="prefix__fluorescent-blue" cx="1040.46" cy="568.57" rx="112.1" ry="32.34"/><ellipse class="prefix__blue-ryb" cx="1040.46" cy="564.29" rx="76.03" ry="20.12"/><path class="prefix__zaffre" d="M1103.31 575.61c-13.68 5.31-36.73 8.79-62.85 8.79s-49.17-3.48-62.85-8.79c13.68-5.32 36.73-8.8 62.85-8.8s49.17 3.48 62.85 8.8z"/><path class="prefix__fluorescent-blue" d="M932.19 461.34H941a7.34 7.34 0 017.34 7.34v56.38h-23.49v-56.38a7.34 7.34 0 017.34-7.34z" transform="rotate(-29.67 936.725 493.235)"/><path class="prefix__electric-purple" d="M1000.38 581.38c-18.22-3-31.3-8-34.93-13.79l-.27-.49-23-40.4 20.43-11.64 20.52 36z"/><path class="prefix__zaffre" d="M961.52 681.19c4.33 9.11 4.33 19.06.42 26.94-.83 1.6 1.73 2 3.17.45 6.84-7.47 9.77-17 8.38-25.7a3 3 0 00-2.27-2.12l-8.79-1.24c-1-.14-1.43.65-.91 1.67z"/><path class="prefix__zaffre" d="M905.17 740c9.44 6.72 21.79 5.58 27.57-2.55a16.9 16.9 0 002.3-14.31 14.41 14.41 0 0010-5.81c5-7 2.42-17.35-5.7-23.13a19.75 19.75 0 00-11.52-3.76l-.18-.15a27.61 27.61 0 0120.28.94 30.17 30.17 0 0115.47 16.89 30.17 30.17 0 0122.87 1.34c14.64 7 19.63 27.16 13.32 41.45l-.33.7c-.11.23-.22.46-.34.69-12.32 25-40.92 32.27-66.15 20.27-15-7.14-25.49-19.51-29.07-33.71.48.42.97.8 1.48 1.14z"/><path class="prefix__blue-ryb" d="M902.36 729.11a44.39 44.39 0 001.33 9.77c.48.4 1 .78 1.48 1.14 9.44 6.72 21.79 5.58 27.57-2.55a16.9 16.9 0 002.3-14.31 14.41 14.41 0 0010-5.81c5-7 2.42-17.35-5.7-23.13a19.75 19.75 0 00-11.52-3.76 17.65 17.65 0 012.72 2.86c5.12 6.76 4.56 15.81-1.25 20.21a12.23 12.23 0 01-9.58 2.16 13.9 13.9 0 01-17.35 13.42z"/><path class="prefix__electric-purple" d="M1512 655.43h-384l35.87 123.53h312.26L1512 655.43z"/><path fill="url(#prefix__linear-gradient-2)" d="M1512 504.05h-384l35.87-84.26h312.26l35.87 84.26z"/><path class="prefix__blue-ryb" d="M1508.51 654.74h-377.02l35.22-74.31h306.58l35.22 74.31zm0-150h-377.02l35.22 74.31h306.58l35.22-74.31z"/><path class="prefix__violet" d="M1476.13 579.74h-312.26L1128 655.43h384zM1169 591.16h302l25 52.84h-352.08z"/><path class="prefix__fluorescent-blue" d="M1128 504.05l35.87 75.69h312.26l35.87-75.69zm343 64.26h-302l-25-52.84h352.16z"/><path class="prefix__zaffre" d="M1193.94 644h-50.02l25.04-52.84h.06l24.92 52.84zm302.14 0h-50.09l24.92-52.84h.13l25.04 52.84zm0-128.53l-25.04 52.84h-.31l-24.97-52.84h50.32zm-302.12 0l-24.97 52.84h-.03l-25.04-52.84h50.04z"/><path class="prefix__electric-purple" d="M1476.13 579.74h-312.26L1140 630.15c1.52 4.18 2.92 8.6 4.21 13.29l24.79-52.28h302l24.79 52.3c1.28-4.69 2.69-9.1 4.2-13.28z"/><path class="prefix__zaffre" d="M1400.33 504H1441v34.4a6.35 6.35 0 01-6.35 6.35h-28a6.35 6.35 0 01-6.35-6.35V504zM1199 504h40.7v34.4a6.35 6.35 0 01-6.35 6.35h-28a6.35 6.35 0 01-6.35-6.35V504z"/><path class="prefix__blue-ryb" d="M1441 504.05h-40.7l-5.65-25.1a6.35 6.35 0 016.19-7.75h24.46a6.35 6.35 0 016 4.31zM1245.32 479l-5.65 25.1H1199l9.69-28.54a6.35 6.35 0 016-4.31h24.46a6.35 6.35 0 016.17 7.75z"/><path class="prefix__zaffre" d="M1433 696.13h-27.4a6.36 6.36 0 01-6.35-6.56l1.08-34.14H1441l-1.65 34.65a6.35 6.35 0 01-6.35 6.05zm-198.6 0H1207a6.35 6.35 0 01-6.34-6l-1.66-34.7h40.7l1.08 34.14a6.36 6.36 0 01-6.38 6.56zM1488.24 744h-336.48a4 4 0 01-3.81-2.82l-5.61-18.47a4 4 0 013.8-5.13h347.72a4 4 0 013.8 5.13l-5.61 18.47a4 4 0 01-3.81 2.82zm-160.39-271.51c0-3.81-3.51-6.9-7.85-6.9s-7.85 3.09-7.85 6.9a6.91 6.91 0 004.62 6.28l-4.62 13.75h15.7l-4.62-13.75a6.91 6.91 0 004.62-6.28z"/><rect class="prefix__violet" x="1415.59" y="664.76" width="9.1" height="22.04" rx="4.55" ry="4.55"/><rect class="prefix__violet" x="1215.31" y="664.76" width="9.1" height="22.04" rx="4.55" ry="4.55"/><rect class="prefix__blue-ryb" x="1416.59" y="513.38" width="9.1" height="22.04" rx="4.55" ry="4.55"/><rect class="prefix__blue-ryb" x="1214.31" y="513.38" width="9.1" height="22.04" rx="4.55" ry="4.55"/><path class="prefix__blue-ryb" d="M1395.15 828c-14.67 0-26.56 6.37-26.56 14.22v9.69c0 7.85 11.89 14.22 26.56 14.22s26.57-6.37 26.57-14.22v-9.69c0-7.86-11.9-14.22-26.57-14.22z"/><ellipse class="prefix__fluorescent-blue" cx="1395.15" cy="842.21" rx="26.56" ry="14.22"/><ellipse class="prefix__blue-ryb" cx="1395.15" cy="842.21" rx="16.85" ry="9.02"/><path class="prefix__zaffre" d="M1467.75 802.42c-14.67 0-26.56 6.36-26.56 14.22v9.68c0 7.86 11.89 14.22 26.56 14.22s26.56-6.36 26.56-14.22v-9.68c0-7.86-11.89-14.22-26.56-14.22z"/><ellipse class="prefix__violet" cx="1467.75" cy="816.64" rx="26.56" ry="14.22"/><ellipse class="prefix__zaffre" cx="1467.75" cy="816.64" rx="16.85" ry="9.02"/><path class="prefix__zaffre" d="M1508.05 808.93c-14.67 0-26.57 6.37-26.57 14.22v9.69c0 7.85 11.9 14.22 26.57 14.22s26.56-6.37 26.56-14.22v-9.69c0-7.85-11.89-14.22-26.56-14.22z"/><ellipse class="prefix__violet" cx="1508.05" cy="823.15" rx="26.56" ry="14.22"/><ellipse class="prefix__zaffre" cx="1508.05" cy="823.15" rx="16.85" ry="9.02"/><path class="prefix__violet" d="M1488.9 796.45c-14.67 0-26.56 6.36-26.56 14.22v9.68c0 7.86 11.89 14.22 26.56 14.22s26.57-6.36 26.57-14.22v-9.68c0-7.86-11.9-14.22-26.57-14.22z"/><ellipse class="prefix__electric-purple" cx="1488.9" cy="810.67" rx="26.56" ry="14.22"/><ellipse class="prefix__violet" cx="1488.9" cy="810.67" rx="16.85" ry="9.02"/><path class="prefix__fluorescent-blue" d="M1743.59 786.56l-171.71 90a3.77 3.77 0 01-4.49-.83l-21.83-26.71a2.31 2.31 0 01.85-3.62l171.71-90a3.77 3.77 0 014.49.83l21.83 26.71a2.31 2.31 0 01-.85 3.62z"/><path class="prefix__white" d="M1598.37 862.71l3.67-1.93-4.89-6a2.59 2.59 0 00-3.09-.57 1.59 1.59 0 00-.59 2.5zm16.43-8.62l3.68-1.93-4.89-6a2.61 2.61 0 00-3.1-.57 1.59 1.59 0 00-.58 2.5zm-32.87 17.24l3.68-1.93L1573 854a2.59 2.59 0 00-3.1-.57 1.59 1.59 0 00-.58 2.5zm49.31-25.86l3.68-1.93-12.58-15.39a2.61 2.61 0 00-3.1-.57 1.59 1.59 0 00-.58 2.5zm16.44-8.62l3.68-1.93-4.9-6a2.59 2.59 0 00-3.09-.58 1.59 1.59 0 00-.59 2.5zm16.44-8.62l3.67-1.92-4.89-6a2.59 2.59 0 00-3.1-.57 1.59 1.59 0 00-.58 2.5zm16.43-8.62l3.68-1.92-12.58-15.39a2.59 2.59 0 00-3.1-.57 1.59 1.59 0 00-.58 2.49zM1697 811l3.68-1.93-4.9-6a2.59 2.59 0 00-3.09-.57 1.59 1.59 0 00-.59 2.5zm16.43-8.62l3.67-1.93-4.89-6a2.61 2.61 0 00-3.1-.57 1.59 1.59 0 00-.58 2.5zm16.43-8.62l3.68-1.93-12.54-15.39a2.59 2.59 0 00-3.09-.57 1.59 1.59 0 00-.59 2.5z"/><path class="prefix__electric-purple" d="M981.79 836.34l-6.5 2.47-16.73-.72-9.13-.39 6.56-6.37L968 819.67l6.5-2.47 7.29 19.14z"/><path class="prefix__zaffre" d="M958.56 838.09l-9.13-.39 6.56-6.37a14.16 14.16 0 011.74 3.21 13.65 13.65 0 01.83 3.55z"/><path class="prefix__violet" d="M1092.42 788.73l-3.64-9.57-.23-.6a4.48 4.48 0 00-5.78-2.59L968 819.67a5.12 5.12 0 006.61 3 5.12 5.12 0 003.64 9.57 5.12 5.12 0 00-3 6.61l114.77-43.7a4.49 4.49 0 002.59-5.79zm-32.81 52.88l-6.92.64-15.92-5.17-8.7-2.82 8.03-4.38 14.7-8.02 6.92-.65 1.89 20.4z"/><path class="prefix__zaffre" d="M1036.77 837.08l-8.7-2.82 8-4.38a13.92 13.92 0 01.67 7.2z"/><path class="prefix__fluorescent-blue" d="M1179 825.37l-1-10.2-.06-.64a4.49 4.49 0 00-4.88-4l-122.26 11.33a5.12 5.12 0 005.57 4.62 5.12 5.12 0 101 10.2 5.13 5.13 0 00-4.63 5.57L1175 830.88a4.48 4.48 0 004-4.88z"/><path class="prefix__white" d="M1314.41 274l-19.62-3.73-8.41-18.13a4.17 4.17 0 00-7.88 1l-3.73 19.63-18.13 8.4a4.17 4.17 0 001 7.88l19.63 3.73 8.4 18.13a4.17 4.17 0 007.88-1l3.73-19.62 18.13-8.41a4.17 4.17 0 00-1-7.88z"/><path class="prefix__fluorescent-blue" d="M1724.13 481.68l-16.44-11.34-.37-20a4.17 4.17 0 00-7.6-2.3l-11.34 16.45-20 .36a4.18 4.18 0 00-2.29 7.61l16.44 11.34.37 20a4.17 4.17 0 007.6 2.29l11.35-16.45 20-.36a4.17 4.17 0 002.28-7.6z"/><path class="prefix__white" d="M1441.32 369.64l-5.71-2.2-1.54-5.91a3.53 3.53 0 00-6.71-.38l-2.19 5.7-5.92 1.54a3.53 3.53 0 00-.38 6.71l5.71 2.2 1.54 5.92a3.52 3.52 0 006.7.37l2.2-5.7 5.92-1.54a3.53 3.53 0 00.38-6.71z"/><path class="prefix__fluorescent-blue" d="M1637.23 286.87l-5-3.53v-6.12a3.53 3.53 0 00-6.41-2l-3.53 5-6.11.05a3.52 3.52 0 00-2 6.4l5 3.53v6.12a3.53 3.53 0 006.41 2l3.53-5 6.11-.05a3.52 3.52 0 002-6.4zm-693.65 92.64l-6.06.8-4.18-4.47a3.53 3.53 0 00-6.07 2.87l.79 6.07-4.46 4.22a3.52 3.52 0 002.86 6.07l6.07-.8 4.18 4.47a3.53 3.53 0 006.07-2.87l-.79-6.06 4.46-4.18a3.53 3.53 0 00-2.87-6.12z"/><path class="prefix__white" d="M1192.29 343.52l-4.44-.76-2-4.06a2.59 2.59 0 00-4.89.69l-.77 4.44-4.06 2a2.59 2.59 0 00.69 4.89l4.44.77 2 4.05a2.6 2.6 0 004.9-.68l.76-4.44 4.06-2a2.6 2.6 0 00-.69-4.9z"/></g></g></svg>