<?xml version="1.0" standalone="no"?>
<!DOCTYPE svg PUBLIC "-//W3C//DTD SVG 20010904//EN"
 "http://www.w3.org/TR/2001/REC-SVG-20010904/DTD/svg10.dtd">
<svg version="1.0" xmlns="http://www.w3.org/2000/svg"
 width="776.000000pt" height="776.000000pt" viewBox="0 0 776.000000 776.000000"
 preserveAspectRatio="xMidYMid meet">
<metadata>
Created by potrace 1.11, written by Peter Selinger 2001-2013
</metadata>
<g transform="translate(0.000000,776.000000) scale(0.100000,-0.100000)"
fill="#000000" stroke="none">
<path d="M5309 7658 c-139 -138 -288 -317 -364 -438 -15 -25 -31 -47 -35 -50
-3 -3 -10 -12 -14 -20 -11 -24 -31 -57 -43 -71 -6 -8 -23 -36 -38 -64 -16 -27
-31 -52 -34 -55 -3 -3 -17 -27 -31 -55 -14 -27 -44 -86 -67 -129 -24 -44 -43
-84 -43 -89 0 -6 -7 -18 -15 -27 -9 -10 -17 -27 -20 -38 -2 -11 -10 -31 -18
-44 -9 -13 -36 -75 -62 -138 -26 -63 -56 -134 -66 -157 -11 -24 -19 -47 -19
-51 0 -5 -7 -23 -15 -40 -9 -17 -18 -39 -20 -49 -2 -10 -15 -49 -30 -88 -15
-38 -28 -77 -30 -85 -2 -8 -15 -53 -30 -100 -14 -47 -32 -105 -40 -130 -14
-45 -69 -262 -79 -310 -3 -14 -10 -43 -15 -65 -5 -22 -12 -51 -15 -65 -11 -53
-15 -73 -18 -75 -2 -2 -23 7 -48 19 -63 30 -126 48 -191 53 -59 5 -165 -12
-186 -29 -7 -6 -13 -8 -13 -5 0 3 -21 -5 -47 -18 l-48 -23 -8 27 c-4 14 -10
40 -13 56 -3 17 -11 55 -19 85 -8 30 -16 66 -18 80 -3 14 -10 45 -17 70 -7 25
-14 52 -15 60 -2 8 -11 42 -20 75 -9 33 -18 65 -19 70 -1 6 -13 44 -26 85 -13
41 -25 80 -26 85 -1 6 -11 35 -22 65 -10 30 -20 57 -20 60 0 3 -6 19 -12 35
-7 17 -13 35 -14 40 -3 12 -8 24 -49 130 -61 159 -151 363 -222 500 -82 160
-135 258 -145 265 -3 3 -9 13 -13 22 -6 16 -155 246 -167 258 -3 3 -25 32 -49
65 -111 150 -342 395 -372 395 -7 0 -9 -3 -6 -7 4 -3 2 -12 -4 -20 -6 -7 -8
-13 -4 -13 4 0 3 -6 -3 -12 -5 -7 -13 -29 -18 -48 -4 -19 -9 -39 -11 -45 -12
-41 -53 -228 -58 -264 -3 -26 -8 -59 -11 -76 -3 -16 -7 -46 -9 -65 -2 -19 -6
-62 -10 -95 -23 -204 -17 -644 11 -860 3 -22 7 -58 9 -80 2 -22 5 -53 8 -70 3
-16 8 -52 12 -78 4 -27 8 -56 10 -65 1 -10 8 -51 15 -92 6 -41 14 -86 17 -100
10 -52 21 -106 27 -132 3 -16 8 -38 11 -50 2 -13 9 -43 16 -68 6 -25 12 -53
14 -62 2 -10 16 -62 30 -115 15 -54 29 -105 30 -113 7 -29 84 -266 114 -352
17 -47 31 -93 31 -100 0 -7 -30 -27 -67 -43 -38 -15 -99 -44 -138 -62 -38 -19
-70 -33 -70 -32 0 1 -20 -8 -45 -21 -25 -13 -47 -23 -50 -23 -3 0 -39 -16 -80
-35 -41 -18 -95 -43 -120 -54 -82 -36 -156 -69 -295 -133 -88 -40 -109 -48
-117 -47 -5 1 -8 -3 -8 -8 0 -6 -9 -10 -20 -10 -11 0 -20 -5 -20 -12 0 -6 -3
-9 -6 -6 -3 3 -37 -9 -75 -28 -38 -19 -72 -34 -76 -34 -3 0 -38 -15 -77 -34
-76 -36 -175 -82 -216 -99 -14 -6 -27 -11 -30 -13 -3 -1 -15 -5 -27 -9 -13 -4
-23 -12 -23 -18 0 -6 -3 -8 -6 -5 -3 3 -40 -10 -82 -29 -42 -19 -102 -46 -132
-60 -30 -14 -71 -32 -90 -41 -19 -8 -89 -41 -156 -73 -108 -52 -123 -62 -139
-96 -44 -93 -21 -185 59 -236 24 -15 46 -27 49 -27 3 0 34 -13 69 -29 35 -16
73 -32 86 -36 12 -3 22 -11 22 -16 0 -5 6 -9 14 -9 8 0 47 -15 88 -34 40 -19
106 -48 147 -66 40 -17 108 -48 150 -67 69 -32 140 -64 306 -137 33 -15 78
-35 100 -46 40 -19 136 -62 145 -65 3 0 36 -16 74 -33 38 -18 70 -32 71 -32 2
0 45 -20 97 -44 51 -23 147 -67 213 -96 66 -28 125 -58 130 -65 7 -8 10 -302
9 -841 -1 -587 2 -833 10 -843 8 -11 8 -13 0 -8 -17 10 -9 -166 10 -236 43
-156 165 -308 347 -433 87 -60 184 -114 205 -114 8 0 14 -4 14 -10 0 -5 5 -10
10 -10 6 0 29 -9 53 -19 87 -40 263 -96 382 -122 22 -4 51 -11 65 -14 52 -11
280 -41 350 -45 147 -10 457 -1 550 15 14 2 45 6 70 9 116 13 364 72 445 106
11 4 58 22 105 40 89 34 223 100 228 113 2 4 9 7 15 7 28 1 287 214 287 236 0
3 13 22 29 42 40 50 79 130 100 205 17 57 18 134 17 993 l-1 931 75 32 c41 18
82 37 90 42 8 5 22 12 30 15 8 3 23 10 32 15 10 5 25 9 33 9 8 0 15 5 15 10 0
6 7 10 16 10 9 0 28 7 42 15 15 8 77 36 137 64 309 138 417 187 495 221 97 43
174 78 278 126 40 19 74 34 76 34 4 0 84 36 211 95 93 43 130 58 138 57 4 -1
7 2 7 7 0 5 12 11 28 14 47 10 111 59 132 103 38 77 16 170 -50 219 -19 14
-37 25 -42 25 -4 0 -40 15 -80 34 -88 41 -136 63 -383 173 -104 47 -211 96
-237 109 -27 13 -48 20 -48 17 0 -3 -9 2 -20 12 -11 10 -20 16 -20 12 0 -3
-26 7 -57 22 -32 16 -75 34 -95 42 -21 7 -38 17 -38 21 0 4 -6 8 -13 8 -7 0
-32 9 -54 20 -23 11 -81 37 -130 59 -48 21 -115 51 -148 67 -33 15 -64 29 -70
30 -5 1 -48 20 -95 42 -195 92 -242 112 -254 112 -8 0 -19 7 -26 15 -6 8 -15
14 -18 13 -8 -1 -30 8 -137 57 -44 21 -100 46 -124 56 -31 14 -41 23 -34 32 5
6 18 39 28 72 10 33 20 65 24 70 3 6 6 12 7 15 0 3 3 12 7 20 5 13 69 216 72
230 1 3 7 25 14 50 7 25 15 52 16 60 2 8 4 15 5 15 2 0 62 243 76 310 14 67
25 125 29 146 3 13 7 35 10 49 11 54 44 264 49 315 2 17 7 62 11 100 4 39 9
84 11 100 28 254 18 717 -21 967 -4 24 -9 57 -11 73 -3 17 -9 46 -14 65 -5 19
-11 49 -14 65 -2 17 -9 45 -15 63 -5 18 -10 35 -10 37 0 3 -10 38 -22 78 -13
39 -22 75 -21 80 4 15 -9 4 -109 -95z"/>
<path d="M6948 3103 c-92 -26 -165 -132 -156 -225 13 -127 128 -221 249 -203
24 3 54 13 67 21 12 8 22 11 22 8 0 -16 74 74 87 105 14 33 19 105 11 141 -8
30 -39 80 -66 105 -55 53 -137 71 -214 48z"/>
<path d="M6963 2518 c-11 -13 -52 -77 -89 -143 -38 -66 -74 -129 -81 -140 -7
-11 -15 -26 -19 -32 -3 -7 -34 -62 -68 -122 -70 -122 -75 -156 -28 -183 23
-13 76 -16 341 -16 l314 0 24 24 c13 13 23 32 23 44 0 18 -30 83 -60 130 -5 8
-64 110 -130 225 -67 116 -125 214 -130 219 -5 5 -24 10 -43 12 -25 3 -39 -1
-54 -18z"/>
</g>
</svg>
